<svg width="96" height="96" viewBox="0 0 96 96" fill="none" xmlns="http://www.w3.org/2000/svg">
<rect width="96" height="96" rx="48" fill="#A0AEC0"/>
<path fill-rule="evenodd" clip-rule="evenodd" d="M29.1281 30.5927C29.1281 20.3227 37.5743 12 47.9968 12C58.4192 12 66.8717 20.3227 66.8717 30.5927C66.8717 40.8688 58.4192 49.1915 47.9968 49.1915C37.5743 49.1915 29.1281 40.8688 29.1281 30.5927ZM48.1344 88C60.5952 88 71.872 83.0843 80 75.1761V69.566C80 62.7822 74.272 57.2766 67.2 57.2766H28.8C21.728 57.2766 16 62.7822 16 69.566V74.8934C24.1472 82.9614 35.5328 88 48.1344 88Z" fill="white"/>
</svg>
