<svg width="24" height="24" viewBox="0 0 24 24" fill="none" xmlns="http://www.w3.org/2000/svg">
<path d="M20.625 20.0938H3.375C2.96016 20.0938 2.625 20.4289 2.625 20.8438V21.6875C2.625 21.7906 2.70937 21.875 2.8125 21.875H21.1875C21.2906 21.875 21.375 21.7906 21.375 21.6875V20.8438C21.375 20.4289 21.0398 20.0938 20.625 20.0938ZM6.03984 18.125C6.08672 18.125 6.13359 18.1203 6.18047 18.1133L10.1227 17.4219C10.1695 17.4125 10.2141 17.3914 10.2469 17.3563L20.182 7.42109C20.2038 7.39941 20.221 7.37366 20.2328 7.3453C20.2445 7.31695 20.2506 7.28656 20.2506 7.25586C20.2506 7.22516 20.2445 7.19477 20.2328 7.16642C20.221 7.13806 20.2038 7.11231 20.182 7.09063L16.2867 3.19297C16.2422 3.14844 16.1836 3.125 16.1203 3.125C16.057 3.125 15.9984 3.14844 15.9539 3.19297L6.01875 13.1281C5.98359 13.1633 5.9625 13.2055 5.95312 13.2523L5.26172 17.1945C5.23892 17.3201 5.24707 17.4493 5.28545 17.571C5.32384 17.6927 5.39132 17.8032 5.48203 17.893C5.63672 18.043 5.83125 18.125 6.03984 18.125Z" fill="white"/>
</svg>
