<svg width="41" height="40" viewBox="0 0 41 40" fill="none" xmlns="http://www.w3.org/2000/svg">
<path fill-rule="evenodd" clip-rule="evenodd" d="M2.1665 20.0002C2.1665 19.0797 2.9127 18.3335 3.83317 18.3335H37.1665C38.087 18.3335 38.8332 19.0797 38.8332 20.0002C38.8332 20.9206 38.087 21.6668 37.1665 21.6668H3.83317C2.9127 21.6668 2.1665 20.9206 2.1665 20.0002Z" fill="#B794F4"/>
<path fill-rule="evenodd" clip-rule="evenodd" d="M12.5665 5L28.4332 5C29.3634 5.00049 30.2759 5.26047 31.0664 5.7507C31.8563 6.2405 32.494 6.94074 32.908 7.7728C32.9083 7.77353 32.9087 7.77427 32.9091 7.775L38.6568 19.2538C38.7728 19.4854 38.8332 19.7409 38.8332 20V30C38.8332 31.3261 38.3064 32.5979 37.3687 33.5355C36.431 34.4732 35.1593 35 33.8332 35H7.1665C5.84042 35 4.56865 34.4732 3.63097 33.5355C2.69329 32.5979 2.1665 31.3261 2.1665 30V20C2.1665 19.7409 2.2269 19.4854 2.34289 19.2538L8.09062 7.775C8.09102 7.77419 8.09143 7.77338 8.09183 7.77256C8.50581 6.9406 9.14345 6.24045 9.93323 5.7507C10.7238 5.26047 11.6363 5.00049 12.5665 5ZM9.58317 8.51667L11.0734 9.26289L5.49984 20.394V30C5.49984 30.442 5.67543 30.8659 5.98799 31.1785C6.30055 31.4911 6.72448 31.6667 7.1665 31.6667H33.8332C34.2752 31.6667 34.6991 31.4911 35.0117 31.1785C35.3242 30.8659 35.4998 30.442 35.4998 30V20.394L29.9262 9.26289L29.9239 9.25833C29.786 8.98065 29.5733 8.74697 29.3097 8.58357C29.0463 8.42021 28.7426 8.33356 28.4326 8.33333H12.5671C12.2571 8.33356 11.9534 8.42021 11.6899 8.58357C11.4264 8.74698 11.2137 8.98066 11.0757 9.25833L9.58317 8.51667Z" fill="#B794F4"/>
<path fill-rule="evenodd" clip-rule="evenodd" d="M8.8335 26.6667C8.8335 25.7462 9.57969 25 10.5002 25H10.5168C11.4373 25 12.1835 25.7462 12.1835 26.6667C12.1835 27.5871 11.4373 28.3333 10.5168 28.3333H10.5002C9.57969 28.3333 8.8335 27.5871 8.8335 26.6667Z" fill="#B794F4"/>
<path fill-rule="evenodd" clip-rule="evenodd" d="M15.5 26.6667C15.5 25.7462 16.2462 25 17.1667 25H17.1833C18.1038 25 18.85 25.7462 18.85 26.6667C18.85 27.5871 18.1038 28.3333 17.1833 28.3333H17.1667C16.2462 28.3333 15.5 27.5871 15.5 26.6667Z" fill="#B794F4"/>
</svg>
