<svg width="76" height="30" viewBox="0 0 76 30" fill="none" xmlns="http://www.w3.org/2000/svg">
<g clip-path="url(#clip0_205_1605)">
<path d="M31.1118 12.7533V13.4422H39.9487V12.7533L43.1856 13.4422H61.7278V12.4796H62.0757V12.0671H63.6761V12.4796H64.0935V13.4422H75.5537C75.3978 13.2359 75.2016 12.9554 74.9636 12.7505L71.6453 9.90391C71.0949 9.43017 70.3893 9.1792 69.6587 9.1792H26.7789C25.109 9.1792 23.7368 10.4932 23.7368 12.1434V13.4422H29.0181L31.1125 12.7533H31.1118Z" fill="#805AD5"/>
<path d="M71.7471 20.0058L74.9541 17.2727C75.2352 17.0307 75.4669 16.7426 75.6339 16.4675H71.7471V20.0058Z" fill="#805AD5"/>
<path d="M23.7358 16.4675V17.8558C23.7358 19.506 25.108 20.8681 26.778 20.8681H28.0499V16.4675H23.7358Z" fill="#805AD5"/>
<path d="M35.9125 18.049V17.1551H39.9482V16.4675H31.1113V20.8681H33.3379V18.049H35.9125Z" fill="#805AD5"/>
<path d="M46.6978 16.4675H44.6104V18.9428H46.6978V16.4675Z" fill="#805AD5"/>
<path d="M66.7373 16.4675H64.9282V16.8801H66.7373V16.4675Z" fill="#805AD5"/>
<path d="M58.2485 17.4989V16.4675H51.499V17.4989H53.169V20.8681H55.2564V17.4989H58.2485Z" fill="#805AD5"/>
<path d="M61.7277 14.8703V13.4421H43.1855L44.6106 13.7165V16.4675H46.698V15.2409L51.4992 14.4728V16.4675H58.2486V13.9166L61.7277 14.8703Z" fill="#B794F4"/>
<path d="M75.5534 13.4421H64.0933V13.9234H64.9282V16.4675H66.7374V13.9234H67.0853V13.5797H69.6598V13.9234H70.0773V15.8487H71.7473V16.4675H75.6341C76.1476 15.5049 76.1205 14.336 75.5534 13.4421Z" fill="#B794F4"/>
<path d="M39.9482 13.4421H31.1113V16.4675H39.9482V13.4421Z" fill="#B794F4"/>
<path d="M28.0499 13.7165L29.0171 13.4421H23.7358V16.4675H28.0499V13.7165Z" fill="#B794F4"/>
<path d="M31.1114 20.8682H28.0498V21.9683H31.1114V20.8682Z" fill="white"/>
<path d="M31.1115 12.7532L29.0171 13.4421H31.1115V12.7532Z" fill="white"/>
<path d="M31.1114 16.4675H28.0498V20.8681H31.1114V16.4675Z" fill="white"/>
<path d="M29.017 13.4421L28.0498 13.7165V16.4675H31.1114V13.4421H29.017Z" fill="white"/>
<path d="M39.9482 12.7532V13.4421H43.1852L39.9482 12.7532Z" fill="white"/>
<path d="M51.4987 17.4989V16.4675H46.6976V18.9428H44.6101V16.4675H39.9482V17.1551H35.9124V18.049H33.3379V20.8681H53.1687V17.4989H51.4987Z" fill="white"/>
<path d="M46.6978 15.2409V16.4676H51.4989V14.4729L46.6978 15.2409Z" fill="white"/>
<path d="M43.1852 13.4421H39.9482V16.4675H44.6102V13.7165L43.1852 13.4421Z" fill="white"/>
<path d="M63.6758 12.4797V12.0671H62.0754V12.4797H61.7275V13.4423H64.0933V12.4797H63.6758Z" fill="white"/>
<path d="M66.7373 16.4675V16.88H64.9282V16.4675H58.2484V17.4989H55.2563V20.868H69.6591C70.389 20.868 71.0855 20.5951 71.6359 20.1206L71.7472 20.0051V16.4668H66.7373V16.4675Z" fill="white"/>
<path d="M71.7472 15.8489H70.0772V13.9236H69.6597V13.5798H67.0852V13.9236H66.7373V16.4677H71.7472V15.8489Z" fill="white"/>
<path d="M61.7276 14.8703L58.2485 13.9166V16.4675H64.9284V13.9234H64.0934V13.4421H61.7276V14.8703Z" fill="white"/>
<path d="M13.7779 0C6.16842 0 0 6.71564 0 14.9997C0 23.2837 6.16842 29.9993 13.7779 29.9993C21.3874 29.9993 27.5558 23.2837 27.5558 14.9997C27.5558 6.71564 21.3874 0 13.7779 0ZM13.7779 23.8551C9.28569 23.8551 5.64378 19.8904 5.64378 14.9997C5.64378 10.1089 9.28569 6.14426 13.7779 6.14426C18.2701 6.14426 12.6388 10.1089 12.6388 14.9997C12.6388 19.8904 18.2701 23.8551 13.7779 23.8551Z" fill="#805AD5"/>
<path d="M41.1909 14.0371H40.2383V14.4724H41.1909V14.0371Z" fill="#F7941E"/>
<path d="M42.289 14.9998H41.3364V15.435H42.289V14.9998Z" fill="#F7941E"/>
<path d="M41.1909 15.842H40.2383V16.2773H41.1909V15.842Z" fill="#F7941E"/>
<path d="M52.7928 18.2546H51.7261V18.8975H52.7928V18.2546Z" fill="#F7941E"/>
<path d="M48.24 16.24H47.1733V16.8829H48.24V16.24Z" fill="#F7941E"/>
<path d="M50.1946 15.5208H49.1279V16.1636H50.1946V15.5208Z" fill="#F7941E"/>
<path d="M68.199 14.6785H67.1323V15.3214H68.199V14.6785Z" fill="#F7941E"/>
<path d="M69.4725 16.24H68.4058V16.8829H69.4725V16.24Z" fill="#F7941E"/>
<path d="M37.4866 17.9329H36.4199V18.5758H37.4866V17.9329Z" fill="#F7941E"/>
<path d="M34.3657 18.6445H33.832V19.2874H34.3657V18.6445Z" fill="#F7941E"/>
<path d="M35.4302 19.6064H34.8965V20.2493H35.4302V19.6064Z" fill="#F7941E"/>
<path d="M58.0583 18.688H55.5186V18.9658H58.0583V18.688Z" fill="#F7941E"/>
<path d="M58.0583 19.3286H55.5186V19.6064H58.0583V19.3286Z" fill="#F7941E"/>
<path d="M59.4149 15.604H58.7539V16.0826H59.4149V15.604Z" fill="#F7941E"/>
<path d="M62.6298 12.8193H61.9688V13.2979H62.6298V12.8193Z" fill="#F7941E"/>
<path d="M63.7182 13.6775H63.0571V14.156H63.7182V13.6775Z" fill="#F7941E"/>
<path d="M61.5199 16.3225H60.8589V16.8011H61.5199V16.3225Z" fill="#F7941E"/>
<path d="M60.3607 18.0154H59.6997V18.4939H60.3607V18.0154Z" fill="#F7941E"/>
<path d="M30.8517 14.4729H28.312V14.794H30.8517V14.4729Z" fill="#F7941E"/>
<path d="M30.8517 15.0574H28.312V15.3785H30.8517V15.0574Z" fill="#F7941E"/>
<path d="M30.8517 15.6426H28.312V15.9637H30.8517V15.6426Z" fill="#F7941E"/>
<path d="M30.8517 16.2271H28.312V16.5482H30.8517V16.2271Z" fill="#F7941E"/>
<path d="M36.9848 20.0728V28.8H35.5786L31.4664 22.8554H31.3939V28.8H29.8129V20.0728H31.2277L35.3357 26.0216H35.4124V20.0728H36.9848ZM41.837 28.9279C41.1808 28.9279 40.614 28.7915 40.1367 28.5188C39.6623 28.2432 39.2972 27.854 39.0416 27.3512C38.7859 26.8455 38.658 26.2503 38.658 25.5657C38.658 24.8924 38.7859 24.3015 39.0416 23.7929C39.3001 23.2816 39.6609 22.8839 40.124 22.5998C40.587 22.3128 41.1311 22.1694 41.7561 22.1694C42.1595 22.1694 42.5401 22.2347 42.8981 22.3654C43.2589 22.4932 43.5771 22.6921 43.8526 22.962C44.1311 23.2319 44.3498 23.5756 44.5089 23.9932C44.668 24.408 44.7475 24.9023 44.7475 25.4762V25.9492H39.3825V24.9094H43.2688C43.266 24.614 43.2021 24.3512 43.0771 24.1211C42.9521 23.8881 42.7774 23.7049 42.5529 23.5714C42.3313 23.4378 42.0728 23.3711 41.7774 23.3711C41.462 23.3711 41.185 23.4478 40.9464 23.6012C40.7078 23.7518 40.5217 23.9506 40.3882 24.1978C40.2575 24.4421 40.1907 24.7106 40.1879 25.0032V25.9108C40.1879 26.2915 40.2575 26.6182 40.3967 26.891C40.5359 27.1608 40.7305 27.3682 40.9805 27.5131C41.2305 27.6552 41.5231 27.7262 41.8583 27.7262C42.0828 27.7262 42.2859 27.6949 42.4677 27.6324C42.6495 27.5671 42.8072 27.4719 42.9407 27.3469C43.0742 27.2219 43.1751 27.0671 43.2433 26.8824L44.6836 27.0444C44.5927 27.425 44.4194 27.7574 44.1637 28.0415C43.9109 28.3228 43.587 28.5415 43.1921 28.6978C42.7972 28.8512 42.3455 28.9279 41.837 28.9279ZM47.4733 22.2546L48.7943 24.6708L50.1367 22.2546H51.7688L49.7958 25.5273L51.8029 28.8H50.1793L48.7943 26.4435L47.4222 28.8H45.7858L47.7801 25.5273L45.8369 22.2546H47.4733ZM57.4338 26.0472V22.2546H58.9764V28.8H57.4807V27.6367H57.4125C57.2648 28.0032 57.0219 28.3029 56.6838 28.5358C56.3486 28.7688 55.9352 28.8853 55.4438 28.8853C55.0148 28.8853 54.6355 28.7901 54.306 28.5998C53.9793 28.4066 53.7236 28.1268 53.5389 27.7603C53.3543 27.391 53.2619 26.9449 53.2619 26.4222V22.2546H54.8046V26.1836C54.8046 26.5983 54.9182 26.9279 55.1455 27.1722C55.3727 27.4165 55.671 27.5387 56.0404 27.5387C56.2676 27.5387 56.4878 27.4833 56.7009 27.3725C56.9139 27.2617 57.0887 27.0969 57.225 26.8782C57.3642 26.6566 57.4338 26.3796 57.4338 26.0472ZM66.036 23.9847L64.6298 24.1381C64.59 23.9961 64.5204 23.8625 64.421 23.7375C64.3244 23.6125 64.1937 23.5117 64.0289 23.435C63.8642 23.3583 63.6624 23.3199 63.4238 23.3199C63.1028 23.3199 62.8329 23.3895 62.6142 23.5287C62.3982 23.6679 62.2917 23.8483 62.2945 24.0699C62.2917 24.2603 62.3613 24.4151 62.5034 24.5344C62.6482 24.6537 62.8869 24.7518 63.2193 24.8285L64.3357 25.0671C64.9551 25.2006 65.4153 25.4123 65.7164 25.702C66.0204 25.9918 66.1738 26.3711 66.1767 26.8398C66.1738 27.2518 66.0531 27.6154 65.8144 27.9307C65.5786 28.2432 65.2505 28.4875 64.8301 28.6637C64.4096 28.8398 63.9267 28.9279 63.3812 28.9279C62.5801 28.9279 61.9352 28.7603 61.4465 28.425C60.9579 28.087 60.6667 27.6168 60.573 27.0145L62.0772 26.8697C62.1454 27.1651 62.2903 27.3881 62.5119 27.5387C62.7335 27.6893 63.0218 27.7645 63.3769 27.7645C63.7434 27.7645 64.0374 27.6893 64.259 27.5387C64.4835 27.3881 64.5957 27.202 64.5957 26.9804C64.5957 26.7929 64.5232 26.6381 64.3784 26.516C64.2363 26.3938 64.0147 26.3 63.7136 26.2347L62.5971 26.0003C61.9693 25.8697 61.5048 25.6495 61.2036 25.3398C60.9025 25.0273 60.7534 24.6324 60.7562 24.1552C60.7534 23.7518 60.8627 23.4023 61.0843 23.1069C61.3088 22.8086 61.6198 22.5785 62.0176 22.4165C62.4181 22.2518 62.8798 22.1694 63.4025 22.1694C64.1695 22.1694 64.7732 22.3327 65.2136 22.6594C65.6568 22.9861 65.9309 23.4279 66.036 23.9847Z" fill="#171923"/>
</g>
<defs>
<clipPath id="clip0_205_1605">
<rect width="76" height="30" fill="white"/>
</clipPath>
</defs>
</svg>
