<svg width="76" height="30" viewBox="0 0 76 30" fill="none" xmlns="http://www.w3.org/2000/svg">
<g clip-path="url(#clip0_205_1504)">
<path d="M31.1118 12.7533V13.4422H39.9487V12.7533L43.1856 13.4422H61.7278V12.4796H62.0757V12.0671H63.6761V12.4796H64.0935V13.4422H75.5537C75.3978 13.2359 75.2016 12.9554 74.9636 12.7505L71.6453 9.90391C71.0949 9.43017 70.3893 9.1792 69.6587 9.1792H26.7789C25.109 9.1792 23.7368 10.4932 23.7368 12.1434V13.4422H29.0181L31.1125 12.7533H31.1118Z" fill="white"/>
<path d="M71.7471 20.0058L74.9541 17.2727C75.2352 17.0307 75.4669 16.7426 75.6339 16.4675H71.7471V20.0058Z" fill="white"/>
<path d="M23.7358 16.4675V17.8558C23.7358 19.506 25.108 20.8681 26.778 20.8681H28.0499V16.4675H23.7358Z" fill="white"/>
<path d="M35.9125 18.049V17.1551H39.9482V16.4675H31.1113V20.8681H33.3379V18.049H35.9125Z" fill="white"/>
<path d="M46.6978 16.4675H44.6104V18.9428H46.6978V16.4675Z" fill="white"/>
<path d="M66.7373 16.4675H64.9282V16.8801H66.7373V16.4675Z" fill="white"/>
<path d="M58.2485 17.4989V16.4675H51.499V17.4989H53.169V20.8681H55.2564V17.4989H58.2485Z" fill="white"/>
<path d="M61.7277 14.8703V13.4421H43.1855L44.6106 13.7165V16.4675H46.698V15.2409L51.4992 14.4728V16.4675H58.2486V13.9166L61.7277 14.8703Z" fill="#B794F4"/>
<path d="M75.5534 13.4421H64.0933V13.9234H64.9282V16.4675H66.7374V13.9234H67.0853V13.5797H69.6598V13.9234H70.0773V15.8487H71.7473V16.4675H75.6341C76.1476 15.5049 76.1205 14.336 75.5534 13.4421Z" fill="#B794F4"/>
<path d="M39.9482 13.4421H31.1113V16.4675H39.9482V13.4421Z" fill="#B794F4"/>
<path d="M28.0499 13.7165L29.0171 13.4421H23.7358V16.4675H28.0499V13.7165Z" fill="#B794F4"/>
<path d="M31.1115 12.7532L29.0171 13.4421H31.1115V12.7532Z" fill="#553C9A"/>
<path d="M31.1114 16.4675H28.0498V20.8681H31.1114V16.4675Z" fill="#553C9A"/>
<path d="M29.017 13.4421L28.0498 13.7165V16.4675H31.1114V13.4421H29.017Z" fill="#553C9A"/>
<path d="M39.9482 12.7532V13.4421H43.1852L39.9482 12.7532Z" fill="#553C9A"/>
<path d="M51.4987 17.4989V16.4675H46.6976V18.9428H44.6101V16.4675H39.9482V17.1551H35.9124V18.049H33.3379V20.8681H53.1687V17.4989H51.4987Z" fill="#553C9A"/>
<path d="M46.6978 15.2409V16.4676H51.4989V14.4729L46.6978 15.2409Z" fill="#553C9A"/>
<path d="M43.1852 13.4421H39.9482V16.4675H44.6102V13.7165L43.1852 13.4421Z" fill="#553C9A"/>
<path d="M63.6758 12.4797V12.0671H62.0754V12.4797H61.7275V13.4423H64.0933V12.4797H63.6758Z" fill="#553C9A"/>
<path d="M66.7373 16.4675V16.88H64.9282V16.4675H58.2484V17.4989H55.2563V20.868H69.6591C70.389 20.868 71.0855 20.5951 71.6359 20.1206L71.7472 20.0051V16.4668H66.7373V16.4675Z" fill="#553C9A"/>
<path d="M71.7472 15.8489H70.0772V13.9236H69.6597V13.5798H67.0852V13.9236H66.7373V16.4677H71.7472V15.8489Z" fill="#553C9A"/>
<path d="M61.7276 14.8703L58.2485 13.9166V16.4675H64.9284V13.9234H64.0934V13.4421H61.7276V14.8703Z" fill="#553C9A"/>
<path d="M13.7779 0C6.16842 0 0 6.71564 0 14.9997C0 23.2837 6.16842 29.9993 13.7779 29.9993C21.3874 29.9993 27.5558 23.2837 27.5558 14.9997C27.5558 6.71564 21.3874 0 13.7779 0ZM13.7779 23.8551C9.28569 23.8551 5.64378 19.8904 5.64378 14.9997C5.64378 10.1089 9.28569 6.14426 13.7779 6.14426C18.2701 6.14426 12.6388 10.1089 12.6388 14.9997C12.6388 19.8904 18.2701 23.8551 13.7779 23.8551Z" fill="white"/>
<path d="M41.1909 14.0371H40.2383V14.4724H41.1909V14.0371Z" fill="#F7941E"/>
<path d="M42.289 14.9998H41.3364V15.435H42.289V14.9998Z" fill="#F7941E"/>
<path d="M41.1909 15.842H40.2383V16.2773H41.1909V15.842Z" fill="#F7941E"/>
<path d="M52.7928 18.2546H51.7261V18.8975H52.7928V18.2546Z" fill="#F7941E"/>
<path d="M48.24 16.24H47.1733V16.8829H48.24V16.24Z" fill="#F7941E"/>
<path d="M50.1946 15.5208H49.1279V16.1636H50.1946V15.5208Z" fill="#F7941E"/>
<path d="M68.199 14.6785H67.1323V15.3214H68.199V14.6785Z" fill="#F7941E"/>
<path d="M69.4725 16.24H68.4058V16.8829H69.4725V16.24Z" fill="#F7941E"/>
<path d="M37.4866 17.9329H36.4199V18.5758H37.4866V17.9329Z" fill="#F7941E"/>
<path d="M34.3657 18.6445H33.832V19.2874H34.3657V18.6445Z" fill="#F7941E"/>
<path d="M35.4302 19.6064H34.8965V20.2493H35.4302V19.6064Z" fill="#F7941E"/>
<path d="M58.0583 18.688H55.5186V18.9658H58.0583V18.688Z" fill="#F7941E"/>
<path d="M58.0583 19.3286H55.5186V19.6064H58.0583V19.3286Z" fill="#F7941E"/>
<path d="M59.4149 15.604H58.7539V16.0826H59.4149V15.604Z" fill="#F7941E"/>
<path d="M62.6298 12.8193H61.9688V13.2979H62.6298V12.8193Z" fill="#F7941E"/>
<path d="M63.7182 13.6775H63.0571V14.156H63.7182V13.6775Z" fill="#F7941E"/>
<path d="M61.5199 16.3225H60.8589V16.8011H61.5199V16.3225Z" fill="#F7941E"/>
<path d="M60.3607 18.0154H59.6997V18.4939H60.3607V18.0154Z" fill="#F7941E"/>
<path d="M30.8517 14.4729H28.312V14.794H30.8517V14.4729Z" fill="#F7941E"/>
<path d="M30.8517 15.0574H28.312V15.3785H30.8517V15.0574Z" fill="#F7941E"/>
<path d="M30.8517 15.6426H28.312V15.9637H30.8517V15.6426Z" fill="#F7941E"/>
<path d="M30.8517 16.2271H28.312V16.5482H30.8517V16.2271Z" fill="#F7941E"/>
<path d="M37.5883 20.0728V28.8H36.1821L32.0699 22.8554H31.9974V28.8H30.4165V20.0728H31.8312L35.9392 26.0216H36.0159V20.0728H37.5883ZM42.4405 28.9279C41.7843 28.9279 41.2175 28.7915 40.7403 28.5188C40.2658 28.2432 39.9008 27.854 39.6451 27.3512C39.3894 26.8455 39.2616 26.2503 39.2616 25.5657C39.2616 24.8924 39.3894 24.3015 39.6451 23.7929C39.9036 23.2816 40.2644 22.8839 40.7275 22.5998C41.1905 22.3128 41.7346 22.1694 42.3596 22.1694C42.763 22.1694 43.1437 22.2347 43.5016 22.3654C43.8624 22.4932 44.1806 22.6921 44.4562 22.962C44.7346 23.2319 44.9533 23.5756 45.1124 23.9932C45.2715 24.408 45.351 24.9023 45.351 25.4762V25.9492H39.986V24.9094H43.8724C43.8695 24.614 43.8056 24.3512 43.6806 24.1211C43.5556 23.8881 43.3809 23.7049 43.1564 23.5714C42.9349 23.4378 42.6763 23.3711 42.3809 23.3711C42.0655 23.3711 41.7885 23.4478 41.5499 23.6012C41.3113 23.7518 41.1252 23.9506 40.9917 24.1978C40.861 24.4421 40.7942 24.7106 40.7914 25.0032V25.9108C40.7914 26.2915 40.861 26.6182 41.0002 26.891C41.1394 27.1608 41.334 27.3682 41.584 27.5131C41.834 27.6552 42.1266 27.7262 42.4618 27.7262C42.6863 27.7262 42.8894 27.6949 43.0712 27.6324C43.253 27.5671 43.4107 27.4719 43.5442 27.3469C43.6778 27.2219 43.7786 27.0671 43.8468 26.8824L45.2871 27.0444C45.1962 27.425 45.0229 27.7574 44.7672 28.0415C44.5144 28.3228 44.1905 28.5415 43.7957 28.6978C43.4008 28.8512 42.9491 28.9279 42.4405 28.9279ZM48.0768 22.2546L49.3979 24.6708L50.7402 22.2546H52.3723L50.3993 25.5273L52.4064 28.8H50.7828L49.3979 26.4435L48.0257 28.8H46.3893L48.3836 25.5273L46.4405 22.2546H48.0768ZM58.0373 26.0472V22.2546H59.58V28.8H58.0842V27.6367H58.016C57.8683 28.0032 57.6254 28.3029 57.2873 28.5358C56.9521 28.7688 56.5388 28.8853 56.0473 28.8853C55.6183 28.8853 55.239 28.7901 54.9095 28.5998C54.5828 28.4066 54.3271 28.1268 54.1425 27.7603C53.9578 27.391 53.8655 26.9449 53.8655 26.4222V22.2546H55.4081V26.1836C55.4081 26.5983 55.5217 26.9279 55.749 27.1722C55.9763 27.4165 56.2746 27.5387 56.6439 27.5387C56.8711 27.5387 57.0913 27.4833 57.3044 27.3725C57.5175 27.2617 57.6922 27.0969 57.8285 26.8782C57.9677 26.6566 58.0373 26.3796 58.0373 26.0472ZM66.6395 23.9847L65.2333 24.1381C65.1935 23.9961 65.1239 23.8625 65.0245 23.7375C64.9279 23.6125 64.7972 23.5117 64.6324 23.435C64.4677 23.3583 64.266 23.3199 64.0273 23.3199C63.7063 23.3199 63.4364 23.3895 63.2177 23.5287C63.0018 23.6679 62.8952 23.8483 62.8981 24.0699C62.8952 24.2603 62.9648 24.4151 63.1069 24.5344C63.2518 24.6537 63.4904 24.7518 63.8228 24.8285L64.9393 25.0671C65.5586 25.2006 66.0188 25.4123 66.3199 25.702C66.6239 25.9918 66.7773 26.3711 66.7802 26.8398C66.7773 27.2518 66.6566 27.6154 66.418 27.9307C66.1822 28.2432 65.854 28.4875 65.4336 28.6637C65.0131 28.8398 64.5302 28.9279 63.9847 28.9279C63.1836 28.9279 62.5387 28.7603 62.0501 28.425C61.5614 28.087 61.2702 27.6168 61.1765 27.0145L62.6807 26.8697C62.7489 27.1651 62.8938 27.3881 63.1154 27.5387C63.337 27.6893 63.6253 27.7645 63.9805 27.7645C64.3469 27.7645 64.641 27.6893 64.8626 27.5387C65.087 27.3881 65.1992 27.202 65.1992 26.9804C65.1992 26.7929 65.1268 26.6381 64.9819 26.516C64.8398 26.3938 64.6182 26.3 64.3171 26.2347L63.2006 26.0003C62.5728 25.8697 62.1083 25.6495 61.8072 25.3398C61.506 25.0273 61.3569 24.6324 61.3597 24.1552C61.3569 23.7518 61.4662 23.4023 61.6878 23.1069C61.9123 22.8086 62.2233 22.5785 62.6211 22.4165C63.0216 22.2518 63.4833 22.1694 64.006 22.1694C64.7731 22.1694 65.3768 22.3327 65.8171 22.6594C66.2603 22.9861 66.5344 23.4279 66.6395 23.9847Z" fill="white"/>
</g>
<defs>
<clipPath id="clip0_205_1504">
<rect width="76" height="30" fill="white"/>
</clipPath>
</defs>
</svg>
