<svg viewBox="0 0 24 24" fill="none" xmlns="http://www.w3.org/2000/svg">
  <path fill-rule="evenodd" clip-rule="evenodd"
    d="M11.9999 21.5999C14.546 21.5999 16.9878 20.5885 18.7881 18.7881C20.5885 16.9878 21.5999 14.546 21.5999 11.9999C21.5999 9.45382 20.5885 7.01203 18.7881 5.21168C16.9878 3.41133 14.546 2.3999 11.9999 2.3999C9.45382 2.3999 7.01203 3.41133 5.21168 5.21168C3.41133 7.01203 2.3999 9.45382 2.3999 11.9999C2.3999 14.546 3.41133 16.9878 5.21168 18.7881C7.01203 20.5885 9.45382 21.5999 11.9999 21.5999ZM9.5999 8.3999C9.28164 8.3999 8.97642 8.52633 8.75137 8.75137C8.52633 8.97642 8.3999 9.28164 8.3999 9.5999V14.3999C8.3999 14.7182 8.52633 15.0234 8.75137 15.2484C8.97642 15.4735 9.28164 15.5999 9.5999 15.5999H14.3999C14.7182 15.5999 15.0234 15.4735 15.2484 15.2484C15.4735 15.0234 15.5999 14.7182 15.5999 14.3999V9.5999C15.5999 9.28164 15.4735 8.97642 15.2484 8.75137C15.0234 8.52633 14.7182 8.3999 14.3999 8.3999H9.5999Z"
    fill="white" />
</svg>