<svg viewBox="0 0 24 24" fill="none" xmlns="http://www.w3.org/2000/svg">
  <path fill-rule="evenodd" clip-rule="evenodd"
    d="M2.3999 6.0001C2.3999 5.36358 2.65276 4.75313 3.10285 4.30304C3.55293 3.85295 4.16338 3.6001 4.7999 3.6001H19.1999C19.8364 3.6001 20.4469 3.85295 20.897 4.30304C21.347 4.75313 21.5999 5.36358 21.5999 6.0001V18.0001C21.5999 18.6366 21.347 19.2471 20.897 19.6972C20.4469 20.1472 19.8364 20.4001 19.1999 20.4001H4.7999C4.16338 20.4001 3.55293 20.1472 3.10285 19.6972C2.65276 19.2471 2.3999 18.6366 2.3999 18.0001V6.0001ZM6.3515 7.5517C6.57654 7.32673 6.88171 7.20035 7.1999 7.20035C7.5181 7.20035 7.82327 7.32673 8.0483 7.5517L11.6483 11.1517C11.8733 11.3767 11.9996 11.6819 11.9996 12.0001C11.9996 12.3183 11.8733 12.6235 11.6483 12.8485L8.0483 16.4485C7.82198 16.6671 7.51886 16.788 7.20422 16.7853C6.88959 16.7826 6.58861 16.6564 6.36612 16.4339C6.14363 16.2114 6.01743 15.9104 6.01469 15.5958C6.01196 15.2811 6.13291 14.978 6.3515 14.7517L9.1031 12.0001L6.3515 9.2485C6.12654 9.02346 6.00016 8.7183 6.00016 8.4001C6.00016 8.0819 6.12654 7.77673 6.3515 7.5517ZM13.1999 14.4001C12.8816 14.4001 12.5764 14.5265 12.3514 14.7516C12.1263 14.9766 11.9999 15.2818 11.9999 15.6001C11.9999 15.9184 12.1263 16.2236 12.3514 16.4486C12.5764 16.6737 12.8816 16.8001 13.1999 16.8001H16.7999C17.1182 16.8001 17.4234 16.6737 17.6484 16.4486C17.8735 16.2236 17.9999 15.9184 17.9999 15.6001C17.9999 15.2818 17.8735 14.9766 17.6484 14.7516C17.4234 14.5265 17.1182 14.4001 16.7999 14.4001H13.1999Z"
    fill="white" />
</svg>